<svg width="1920" height="1080" viewBox="0 0 1920 1080" fill="none" xmlns="http://www.w3.org/2000/svg">
<path d="M806.06 637.573C798.318 624.038 790.213 610.562 782.834 596.724C770.415 573.204 757.653 549.844 746.221 525.819C741.947 516.802 741.06 506.151 738.5 495.803L732.552 499.495C706.726 515.935 677.956 524.427 648.339 530.398C606.404 538.83 564.025 543.127 521.324 540.868C491.707 539.294 462.151 536.369 432.615 533.525C392.615 529.692 352.756 523.439 312.676 521.684C256.305 519.183 200.862 527.07 149.673 553.031C136.73 559.567 125.48 569.532 113.867 578.59C110.095 581.951 107.102 586.095 105.097 590.733C100.177 600.819 101.387 606.125 109.492 613.931C113.04 617.381 115.439 622 112.294 625.671C110.782 627.312 108.959 628.636 106.931 629.564C104.902 630.492 102.709 631.007 100.48 631.078C95.3185 630.856 93.625 625.873 93.6653 620.628C93.6653 613.387 92.2742 606.004 93.2621 598.923C95.6209 582.483 107.214 571.913 119.209 562.27C141.729 544.257 168.12 534.372 195.6 526.949C243.342 514.079 291.789 510.468 340.982 513.191C392.252 516.016 443.098 522.37 493.985 528.885C523.896 532.466 554.108 532.77 584.085 529.793C615.315 526.949 646.222 522.39 676.343 513.454C697.734 507.099 718.258 498.688 736.423 485.394C738.676 483.842 740.316 481.552 741.06 478.919C746.866 447.652 772.894 428.751 801.967 423.708C813.439 421.691 824.507 422.255 834.971 427.742C855.091 438.05 863.66 460.643 856.2 483.619C854.95 487.432 852.914 490.982 851.543 494.774C849.285 501.068 844.85 501.935 838.62 500.201C845.031 490.659 849.668 480.815 849.971 469.317C850.454 450.396 839.144 434.339 821.886 430.566C818.144 429.769 814.277 429.769 810.535 430.566C775.475 438.232 751.362 471.254 772.471 513.272C785.132 538.487 800.092 562.533 813.842 587.223C820.313 598.822 826.322 610.704 832.874 623.11C840.737 619.66 848.721 616.513 856.402 612.761C896.724 593.033 933.115 567.999 961.24 532.355C965.111 527.453 967.288 521.099 969.587 515.168C979.224 490.034 991.018 466.311 1012.29 448.741C1020.93 441.351 1031.7 436.889 1043.03 435.993C1060.21 434.661 1073.28 445.615 1078.56 461.288C1084.91 480.492 1078.07 499.616 1061.92 507.684C1058.6 509.339 1054.59 509.56 1050.9 510.448L1050.35 508.854C1053.56 506.575 1056.88 504.437 1059.95 501.976C1063.66 499.079 1066.74 495.449 1068.98 491.311C1071.23 487.173 1072.6 482.617 1073.01 477.925C1073.42 473.233 1072.86 468.507 1071.37 464.042C1069.87 459.576 1067.48 455.466 1064.32 451.969C1055.94 442.387 1047.93 441.883 1039.14 451.061C1028.56 462.015 1022.43 475.732 1016.54 489.388C998.559 531.286 987.004 575.661 982.268 621.012C980.741 635.853 981.053 650.827 983.195 665.592C986.099 685.522 999.324 692.441 1017.97 684.736C1027.33 680.999 1035.99 675.706 1043.58 669.082C1064.06 650.524 1084.55 631.784 1103.26 611.47C1128.28 584.298 1151.92 555.815 1175.59 527.433C1195.17 503.953 1220.21 488.763 1247.91 477.366C1282.99 462.943 1319.73 454.47 1357.02 448.52C1389.4 443.718 1422.12 441.619 1454.85 442.246C1492 442.549 1529.14 443.134 1566.28 443.416C1584.42 443.557 1602.57 444.404 1620.71 442.891C1640.76 441.13 1660.68 438.166 1680.37 434.016C1704.7 429.109 1728.34 421.251 1750.77 410.616C1772.63 400.147 1792.85 387.297 1808.25 368.133C1811.48 364.008 1814.05 359.408 1815.87 354.497C1819.64 344.512 1817.89 339.63 1809.6 332.772C1803.01 327.366 1802.6 321.274 1809.2 317.158C1811.94 315.464 1816.56 314.294 1819.08 315.484C1821.6 316.674 1823.11 320.971 1824.36 324.178C1825.17 326.337 1824.22 329.141 1824.94 331.36C1831.15 350.564 1822.48 365.249 1810.33 378.542C1790.97 399.723 1766.58 413.38 1740.17 423.728C1713.05 434.359 1685.33 443.194 1656.5 447.329C1633.36 450.786 1610.07 453.028 1586.7 454.047C1553.03 455.297 1519.26 455.035 1485.55 454.874C1464.56 454.874 1443.58 453.22 1422.57 453.078C1386.28 452.836 1350.57 458.283 1315.29 466.553C1289.88 472.166 1265.1 480.337 1241.34 490.942C1210.86 505.062 1185.96 525.537 1164.99 551.861C1133.32 591.722 1099.34 629.686 1061.32 663.837C1049.77 674.185 1038.4 685.038 1023.36 690.444C998.74 699.28 976.865 690.444 965.05 667.166C958.336 653.779 954.53 639.122 953.881 624.159C953.125 611.461 953.125 598.73 953.881 586.033C954.768 573.405 957.167 560.878 958.982 547.706C924.526 584.803 883.035 611.087 837.148 628.919C841.18 644.189 845.636 658.794 848.66 673.701C852.156 690.19 851.735 707.27 847.43 723.567C838.761 755.701 817.41 773.594 784.749 778.375C756.987 782.409 734.75 767.562 728.056 740.512C723.822 723.385 726.867 707.207 735.012 691.937C745.475 672.33 761.947 658.915 781.261 648.809C789.205 644.653 797.471 641.426 806.06 637.573ZM810.213 643.766C786.987 652.198 767.451 663.171 752.572 680.943C739.125 697.081 731.806 715.236 735.475 736.82C738.479 754.511 752.108 769.6 768.64 771.758C790.132 774.582 803.156 768.289 812.31 749.569C813.555 747.047 814.632 744.446 815.535 741.782C821.913 722.963 823.364 702.823 819.749 683.283C817.41 670.03 813.519 657.261 810.213 643.806V643.766Z" fill="black"/>
<path d="M392.762 649.617C392.949 651.164 393.043 652.055 393.043 652.289L392.902 655.418C392.855 656.754 392.797 657.609 392.727 657.984C392.516 658.078 392.34 658.125 392.199 658.125L391.883 658.055C391.133 654.773 389.855 652.383 388.051 650.883C386.27 649.383 384.09 648.633 381.512 648.633C378.84 648.633 376.648 649.383 374.938 650.883C373.227 652.383 372.371 654.129 372.371 656.121C372.371 657.645 372.969 659.039 374.164 660.305C375.359 661.57 378.418 663.469 383.34 666C387.09 667.945 389.773 669.539 391.391 670.781C393.008 672 394.227 673.418 395.047 675.035C395.867 676.652 396.277 678.457 396.277 680.449C396.277 682.957 395.621 685.312 394.309 687.516C393.02 689.719 391.273 691.383 389.07 692.508C386.867 693.609 383.949 694.16 380.316 694.16C377.152 694.16 374.117 693.656 371.211 692.648C369.5 692.039 368.457 691.547 368.082 691.172C367.707 690.797 367.52 690.398 367.52 689.977C367.52 689.719 367.543 689.391 367.59 688.992C367.918 686.227 368.094 683.953 368.117 682.172C368.164 681.07 368.246 680.426 368.363 680.238C368.457 680.074 368.633 679.992 368.891 679.992C369.102 679.992 369.266 680.074 369.383 680.238C369.523 680.379 369.617 680.66 369.664 681.082C369.922 683.965 371.258 686.543 373.672 688.816C376.062 691.09 378.77 692.227 381.793 692.227C383.645 692.227 385.344 691.84 386.891 691.066C388.461 690.293 389.68 689.18 390.547 687.727C391.438 686.25 391.883 684.82 391.883 683.438C391.883 681.539 391.215 679.805 389.879 678.234C388.543 676.664 385.859 674.836 381.828 672.75C377.797 670.641 375.172 669.105 373.953 668.145C371.984 666.574 370.508 664.91 369.523 663.152C368.797 661.793 368.434 660.211 368.434 658.406C368.434 655.148 369.723 652.395 372.301 650.145C374.879 647.871 378.336 646.734 382.672 646.734C385.062 646.734 387.125 647.004 388.859 647.543C390.125 647.965 391.426 648.656 392.762 649.617ZM407.802 653.273L409.243 647.965C409.337 647.262 409.466 646.816 409.63 646.629C409.794 646.418 409.981 646.312 410.192 646.312C410.614 646.312 411.095 646.816 411.634 647.824C412.032 648.551 412.36 649.02 412.618 649.23C412.876 649.418 413.251 649.547 413.743 649.617L414.095 649.582L415.606 649.723L423.903 649.828L433.712 649.793H436.595L442.044 649.688C442.278 649.688 442.571 649.711 442.923 649.758C444.516 649.898 445.501 649.969 445.876 649.969C446.227 649.969 446.509 649.852 446.72 649.617C446.79 649.523 447.177 648.727 447.88 647.227C448.184 646.547 448.559 646.207 449.005 646.207C449.192 646.207 449.427 646.254 449.708 646.348C449.825 646.816 449.884 647.238 449.884 647.613L449.848 649.02L449.884 652.008C449.884 652.734 449.825 655.078 449.708 659.039C449.708 659.297 449.661 659.531 449.567 659.742C449.309 659.906 449.087 659.988 448.899 659.988C448.712 659.988 448.548 659.906 448.407 659.742C448.266 659.555 448.091 659.004 447.88 658.09C447.411 655.98 446.825 654.469 446.122 653.555C445.653 652.969 444.973 652.547 444.083 652.289C443.216 652.031 441.118 651.902 437.79 651.902C435.118 651.902 433.137 651.949 431.848 652.043C431.802 652.98 431.778 653.836 431.778 654.609L432.059 676.441C432.059 677.309 432.012 678.949 431.919 681.363L431.954 686.039L431.919 688.641C431.919 689.461 432.059 690.047 432.341 690.398C432.622 690.75 433.384 691.09 434.626 691.418C436.782 691.957 438.223 692.285 438.95 692.402C439.395 692.449 439.759 692.543 440.04 692.684V693.738L435.048 693.598C432.305 693.574 430.243 693.516 428.86 693.422L423.727 693.668L419.966 693.879C418.911 693.879 418.266 693.855 418.032 693.809L417.54 693.598C417.587 693.059 417.692 692.719 417.856 692.578C418.02 692.414 418.454 692.285 419.157 692.191C420.141 692.051 421.302 691.805 422.637 691.453C423.973 691.078 424.852 690.703 425.274 690.328C425.509 690.117 425.673 689.766 425.766 689.273C425.977 688.242 426.083 686.215 426.083 683.191V677.215L425.942 664.172L425.802 661.359L425.766 651.973C424.29 651.809 422.403 651.727 420.106 651.727C416.731 651.727 414.68 651.938 413.954 652.359C412.805 653.016 411.095 654.938 408.821 658.125C408.071 659.32 407.415 659.918 406.852 659.918L406.536 659.848C406.442 659.707 406.395 659.578 406.395 659.461C406.395 659.18 406.583 658.336 406.958 656.93C407.427 655.125 407.708 653.906 407.802 653.273ZM478.564 647.859C478.681 648.258 478.74 648.562 478.74 648.773C478.74 648.914 478.705 649.125 478.634 649.406C478.025 649.57 477.533 649.652 477.158 649.652C476.994 649.652 476.712 649.641 476.314 649.617C475.939 649.57 475.634 649.547 475.4 649.547C474.322 649.547 473.466 649.758 472.834 650.18C472.412 650.438 472.154 650.777 472.06 651.199L471.709 655.207L471.814 672.609C471.837 678.984 472.048 682.957 472.447 684.527C472.845 686.074 473.513 687.352 474.451 688.359C475.388 689.367 476.795 690.199 478.67 690.855C480.568 691.512 482.408 691.84 484.189 691.84C488.173 691.84 491.22 691.266 493.33 690.117C495.462 688.969 496.986 687.387 497.9 685.371C498.837 683.332 499.306 680.25 499.306 676.125C499.306 676.008 499.271 675.07 499.201 673.312V672.293C499.201 671.918 499.224 671.191 499.271 670.113C499.318 669.012 499.341 668.367 499.341 668.18L498.814 658.09C498.65 654.691 498.451 652.688 498.216 652.078C498.005 651.469 497.689 651.012 497.267 650.707C496.353 650.051 494.619 649.465 492.064 648.949C491.947 648.621 491.877 648.281 491.853 647.93C492.767 647.836 493.67 647.789 494.56 647.789C495.498 647.789 496.482 647.824 497.513 647.895C499.06 648.012 499.904 648.07 500.045 648.07L505.599 647.895L506.689 647.93L506.654 649.195C503.771 649.57 502.048 650.016 501.486 650.531C500.923 651.023 500.642 651.949 500.642 653.309C500.642 654.035 500.689 655.617 500.783 658.055L501.029 665.332L500.994 668.215L501.099 671.871C501.099 676.465 500.97 679.594 500.712 681.258C500.337 683.578 499.798 685.418 499.095 686.777C498.416 688.137 497.42 689.367 496.107 690.469C494.795 691.547 493.037 692.438 490.834 693.141C488.654 693.844 486.498 694.195 484.365 694.195C481.013 694.195 478.599 693.961 477.123 693.492C474.427 692.672 472.283 691.605 470.689 690.293C469.095 688.98 467.994 687.668 467.384 686.355C466.564 684.621 466.154 682.09 466.154 678.762V676.336L466.048 666.492L466.154 658.547V653.203C466.154 651.844 465.966 650.895 465.591 650.355C465.334 649.98 464.959 649.793 464.466 649.793L462.392 649.828C460.845 649.828 459.861 649.664 459.439 649.336C459.369 649.125 459.334 648.938 459.334 648.773C459.334 648.562 459.404 648.398 459.545 648.281C459.802 648.094 460.119 648 460.494 648H461.408L463.763 647.965H469.318L478.564 647.859ZM517.123 692.297C517.991 691.922 518.998 691.676 520.147 691.559C521.811 691.371 523.053 690.973 523.873 690.363C524.506 689.074 524.823 685.793 524.823 680.52V674.965L524.893 671.625L524.823 669.164L524.893 664.629L524.788 653.203C524.788 651.914 524.6 651.07 524.225 650.672C523.686 650.086 522.256 649.547 519.936 649.055C518.975 648.844 518.389 648.656 518.178 648.492C517.967 648.305 517.838 647.965 517.791 647.473C518.33 647.355 518.705 647.297 518.916 647.297H521.413L522.713 647.262C523.58 647.262 524.541 647.355 525.596 647.543C527.752 647.684 529.967 647.754 532.241 647.754C532.897 647.754 533.834 647.719 535.053 647.648C538.288 647.461 540.608 647.367 542.014 647.367C544.85 647.367 547.522 647.648 550.03 648.211C552.561 648.773 555.163 649.816 557.834 651.34C559.498 652.301 561.198 653.824 562.932 655.91C564.69 657.973 566.014 660.234 566.905 662.695C567.819 665.133 568.276 667.887 568.276 670.957C568.276 673.699 567.772 676.418 566.764 679.113C565.78 681.809 564.397 684.152 562.616 686.145C560.834 688.113 559.03 689.602 557.202 690.609C555.373 691.594 552.584 692.449 548.834 693.176C547.288 693.457 544.51 693.598 540.502 693.598C537.854 693.598 535.698 693.516 534.034 693.352C533.377 693.258 532.674 693.211 531.924 693.211C531.807 693.211 531.678 693.223 531.538 693.246L517.194 693.492L517.123 693.211C517.077 693.094 517.053 692.965 517.053 692.824L517.123 692.297ZM535.018 690.926C536.799 691.535 538.604 691.84 540.432 691.84C542.799 691.84 545.12 691.477 547.393 690.75C549.666 690 551.67 688.957 553.405 687.621C555.163 686.262 556.604 684.738 557.729 683.051C558.854 681.34 559.651 679.805 560.12 678.445C560.776 676.453 561.104 673.863 561.104 670.676C561.104 667.629 560.459 664.535 559.17 661.395C558.28 659.215 556.709 657.129 554.459 655.137C552.233 653.145 549.596 651.691 546.549 650.777C543.502 649.84 540.209 649.371 536.67 649.371C534.233 649.371 532.428 649.641 531.256 650.18C531.116 650.32 530.975 650.484 530.834 650.672C530.694 651.258 530.623 651.797 530.623 652.289C530.623 652.594 530.635 652.957 530.659 653.379C530.729 656.098 530.764 658.277 530.764 659.918L530.729 667.898C530.729 679.617 530.94 686.145 531.362 687.48C531.807 688.793 533.026 689.941 535.018 690.926ZM580.538 691.875C581.054 691.664 581.581 691.535 582.12 691.488C585.706 691.254 587.757 690.832 588.273 690.223C588.788 689.59 589.046 686.578 589.046 681.188L589.011 677.496V673.629L588.87 669.375L588.941 666.879L588.905 664.137V660.902L588.835 659.461L588.905 657.633C588.929 657.211 588.941 656.719 588.941 656.156C588.941 654.68 588.87 653.121 588.73 651.48C588.636 651.152 588.507 650.836 588.343 650.531C587.476 650.086 586.07 649.793 584.124 649.652C582.202 649.488 581.112 649.312 580.855 649.125C580.667 648.984 580.562 648.621 580.538 648.035H583.491L592.808 648.246C595.198 648.246 598.386 648.176 602.37 648.035C602.37 648.41 602.347 648.762 602.3 649.09C601.831 649.207 601.046 649.336 599.945 649.477C597.718 649.734 596.359 649.98 595.866 650.215C595.562 650.332 595.339 650.531 595.198 650.812C594.964 651.234 594.823 652.02 594.777 653.168L594.601 657.703L594.741 673.348V679.535C594.695 681.48 594.671 682.805 594.671 683.508C594.671 686.133 594.73 687.809 594.847 688.535C594.987 689.262 595.21 689.789 595.515 690.117C595.843 690.422 596.37 690.668 597.097 690.855C598.175 691.113 599.019 691.254 599.628 691.277C600.941 691.324 601.773 691.512 602.124 691.84C602.195 692.145 602.23 692.402 602.23 692.613V692.895C600.097 692.965 598.527 693 597.519 693C596.933 693 595.89 692.965 594.39 692.895L589.538 692.965L581.277 692.93H580.609L580.538 691.875ZM615.055 670.535C615.055 668.145 615.336 666.023 615.898 664.172C616.484 662.297 617.457 660.27 618.816 658.09C620.176 655.91 621.816 654.094 623.738 652.641C625.66 651.164 628.32 649.863 631.719 648.738C634.109 647.965 637.133 647.578 640.789 647.578C643.25 647.578 645.652 647.906 647.996 648.562C650.363 649.219 652.508 650.133 654.43 651.305C656.352 652.477 658.273 654.281 660.195 656.719C661.531 658.406 662.539 660.223 663.219 662.168C664.109 664.723 664.555 667.359 664.555 670.078C664.555 673.172 664.25 675.738 663.641 677.777C663.055 679.816 662.059 681.832 660.652 683.824C659.551 685.371 657.664 687.152 654.992 689.168C653.211 690.527 650.996 691.629 648.348 692.473C645.699 693.293 642.84 693.703 639.77 693.703C636.652 693.703 633.875 693.34 631.438 692.613C629 691.887 626.961 691.008 625.32 689.977C623.703 688.922 622.027 687.375 620.293 685.336C618.582 683.297 617.281 681.047 616.391 678.586C615.5 676.125 615.055 673.441 615.055 670.535ZM639.453 692.402C641.422 692.402 643.461 692.133 645.57 691.594C647.703 691.031 649.59 690.117 651.23 688.852C652.871 687.562 654.148 686.109 655.062 684.492C656 682.852 656.75 680.754 657.312 678.199C657.875 675.645 658.156 673.09 658.156 670.535C658.156 667.348 657.688 664.195 656.75 661.078C656.023 658.711 654.84 656.602 653.199 654.75C651.559 652.875 649.578 651.434 647.258 650.426C644.938 649.395 642.465 648.879 639.84 648.879C637.707 648.879 635.621 649.23 633.582 649.934C631.543 650.637 629.867 651.539 628.555 652.641C627.242 653.719 626.023 655.266 624.898 657.281C623.773 659.273 622.918 661.477 622.332 663.891C621.746 666.305 621.453 668.438 621.453 670.289C621.453 672.234 621.746 674.438 622.332 676.898C622.918 679.359 623.715 681.492 624.723 683.297C625.754 685.102 627.008 686.707 628.484 688.113C629.984 689.496 631.66 690.562 633.512 691.312C635.363 692.039 637.344 692.402 639.453 692.402Z" fill="black"/>
<path d="M1221.66 649.969C1221.94 651.773 1222.08 653.625 1222.08 655.523C1222.08 655.898 1222.07 656.402 1222.05 657.035C1221.72 657.105 1221.47 657.141 1221.31 657.141C1221.17 657.141 1220.97 657.117 1220.71 657.07C1219.73 654.328 1218.12 652.219 1215.89 650.742C1213.67 649.266 1210.91 648.527 1207.63 648.527C1205.9 648.527 1204.43 648.727 1203.24 649.125C1201.13 649.852 1199.28 650.859 1197.68 652.148C1196.09 653.414 1194.74 654.938 1193.64 656.719C1192.54 658.477 1191.66 660.621 1191 663.152C1190.37 665.66 1190.05 668.227 1190.05 670.852C1190.05 675.867 1190.82 680.016 1192.34 683.297C1193.86 686.555 1195.95 688.887 1198.6 690.293C1201.25 691.676 1203.92 692.367 1206.61 692.367L1208.27 692.332C1210.14 692.098 1211.42 691.875 1212.1 691.664C1213.81 691.172 1215.21 690.598 1216.32 689.941C1217.44 689.262 1218.53 688.312 1219.59 687.094C1220.66 685.875 1221.58 684.457 1222.33 682.84L1222.75 682.699C1222.87 682.699 1223.04 682.77 1223.28 682.91C1223.25 683.473 1223.23 683.836 1223.21 684C1222.22 687.961 1221.51 690.668 1221.06 692.121C1220.69 692.215 1220.22 692.355 1219.66 692.543C1216.91 693.48 1213.25 693.949 1208.65 693.949C1204.95 693.949 1202.17 693.691 1200.32 693.176C1198.49 692.684 1196.49 691.91 1194.31 690.855C1192.15 689.777 1190.25 688.359 1188.61 686.602C1186.97 684.844 1185.65 682.629 1184.64 679.957C1183.63 677.262 1183.13 674.332 1183.13 671.168C1183.13 668.168 1183.53 665.555 1184.32 663.328C1185.12 661.078 1186.35 658.805 1188.02 656.508C1189.68 654.211 1191.64 652.301 1193.89 650.777C1196.16 649.254 1198.68 648.176 1201.45 647.543C1203.39 647.121 1206.14 646.91 1209.71 646.91C1212.31 646.91 1214.76 647.262 1217.05 647.965C1219.35 648.645 1220.89 649.312 1221.66 649.969ZM1236.28 670.535C1236.28 668.145 1236.56 666.023 1237.12 664.172C1237.71 662.297 1238.68 660.27 1240.04 658.09C1241.4 655.91 1243.04 654.094 1244.96 652.641C1246.88 651.164 1249.54 649.863 1252.94 648.738C1255.33 647.965 1258.36 647.578 1262.01 647.578C1264.47 647.578 1266.88 647.906 1269.22 648.562C1271.59 649.219 1273.73 650.133 1275.65 651.305C1277.58 652.477 1279.5 654.281 1281.42 656.719C1282.75 658.406 1283.76 660.223 1284.44 662.168C1285.33 664.723 1285.78 667.359 1285.78 670.078C1285.78 673.172 1285.47 675.738 1284.86 677.777C1284.28 679.816 1283.28 681.832 1281.88 683.824C1280.77 685.371 1278.89 687.152 1276.22 689.168C1274.43 690.527 1272.22 691.629 1269.57 692.473C1266.92 693.293 1264.06 693.703 1260.99 693.703C1257.88 693.703 1255.1 693.34 1252.66 692.613C1250.22 691.887 1248.18 691.008 1246.54 689.977C1244.93 688.922 1243.25 687.375 1241.52 685.336C1239.81 683.297 1238.5 681.047 1237.61 678.586C1236.72 676.125 1236.28 673.441 1236.28 670.535ZM1260.68 692.402C1262.65 692.402 1264.68 692.133 1266.79 691.594C1268.93 691.031 1270.81 690.117 1272.45 688.852C1274.09 687.562 1275.37 686.109 1276.29 684.492C1277.22 682.852 1277.97 680.754 1278.54 678.199C1279.1 675.645 1279.38 673.09 1279.38 670.535C1279.38 667.348 1278.91 664.195 1277.97 661.078C1277.25 658.711 1276.06 656.602 1274.42 654.75C1272.78 652.875 1270.8 651.434 1268.48 650.426C1266.16 649.395 1263.69 648.879 1261.06 648.879C1258.93 648.879 1256.84 649.23 1254.81 649.934C1252.77 650.637 1251.09 651.539 1249.78 652.641C1248.47 653.719 1247.25 655.266 1246.12 657.281C1245 659.273 1244.14 661.477 1243.56 663.891C1242.97 666.305 1242.68 668.438 1242.68 670.289C1242.68 672.234 1242.97 674.438 1243.56 676.898C1244.14 679.359 1244.94 681.492 1245.95 683.297C1246.98 685.102 1248.23 686.707 1249.71 688.113C1251.21 689.496 1252.88 690.562 1254.74 691.312C1256.59 692.039 1258.57 692.402 1260.68 692.402ZM1324.37 649.617C1324.56 651.164 1324.65 652.055 1324.65 652.289L1324.51 655.418C1324.47 656.754 1324.41 657.609 1324.34 657.984C1324.13 658.078 1323.95 658.125 1323.81 658.125L1323.49 658.055C1322.74 654.773 1321.47 652.383 1319.66 650.883C1317.88 649.383 1315.7 648.633 1313.12 648.633C1310.45 648.633 1308.26 649.383 1306.55 650.883C1304.84 652.383 1303.98 654.129 1303.98 656.121C1303.98 657.645 1304.58 659.039 1305.78 660.305C1306.97 661.57 1310.03 663.469 1314.95 666C1318.7 667.945 1321.38 669.539 1323 670.781C1324.62 672 1325.84 673.418 1326.66 675.035C1327.48 676.652 1327.89 678.457 1327.89 680.449C1327.89 682.957 1327.23 685.312 1325.92 687.516C1324.63 689.719 1322.88 691.383 1320.68 692.508C1318.48 693.609 1315.56 694.16 1311.93 694.16C1308.76 694.16 1305.73 693.656 1302.82 692.648C1301.11 692.039 1300.07 691.547 1299.69 691.172C1299.32 690.797 1299.13 690.398 1299.13 689.977C1299.13 689.719 1299.15 689.391 1299.2 688.992C1299.53 686.227 1299.7 683.953 1299.73 682.172C1299.78 681.07 1299.86 680.426 1299.97 680.238C1300.07 680.074 1300.24 679.992 1300.5 679.992C1300.71 679.992 1300.88 680.074 1300.99 680.238C1301.13 680.379 1301.23 680.66 1301.28 681.082C1301.53 683.965 1302.87 686.543 1305.28 688.816C1307.67 691.09 1310.38 692.227 1313.4 692.227C1315.26 692.227 1316.95 691.84 1318.5 691.066C1320.07 690.293 1321.29 689.18 1322.16 687.727C1323.05 686.25 1323.49 684.82 1323.49 683.438C1323.49 681.539 1322.83 679.805 1321.49 678.234C1320.15 676.664 1317.47 674.836 1313.44 672.75C1309.41 670.641 1306.78 669.105 1305.56 668.145C1303.6 666.574 1302.12 664.91 1301.13 663.152C1300.41 661.793 1300.04 660.211 1300.04 658.406C1300.04 655.148 1301.33 652.395 1303.91 650.145C1306.49 647.871 1309.95 646.734 1314.28 646.734C1316.67 646.734 1318.74 647.004 1320.47 647.543C1321.74 647.965 1323.04 648.656 1324.37 649.617ZM1338.64 692.191C1339.37 691.699 1340.68 691.348 1342.58 691.137C1344.05 691.066 1344.93 690.938 1345.21 690.75C1345.4 690.609 1345.54 690.434 1345.64 690.223C1345.99 689.355 1346.24 687 1346.41 683.156C1346.62 678.164 1346.96 671.52 1347.43 663.223C1347.8 656.895 1347.99 652.945 1347.99 651.375V650.461C1346.3 650.109 1343.63 649.734 1339.98 649.336C1339.74 648.984 1339.62 648.715 1339.62 648.527C1339.62 648.41 1339.71 648.199 1339.87 647.895C1340.27 647.754 1340.57 647.684 1340.78 647.684C1340.97 647.684 1341.38 647.73 1342.01 647.824C1343.16 647.988 1344.74 648.07 1346.76 648.07C1347.42 648.07 1348.54 648.023 1350.14 647.93C1351.26 647.859 1351.89 647.824 1352.03 647.824C1352.41 647.824 1352.84 647.883 1353.33 648C1353.57 648.234 1353.74 648.457 1353.86 648.668L1355.34 651.973L1365.29 673.98L1369.4 683.227C1372.66 676.781 1375.19 671.051 1376.99 666.035C1377.11 665.66 1377.25 665.32 1377.42 665.016C1377.63 664.617 1377.83 664.172 1378.01 663.68C1378.2 663.188 1378.96 661.312 1380.3 658.055C1380.84 656.742 1381.27 655.617 1381.6 654.68C1382.94 650.93 1383.72 648.785 1383.96 648.246C1384.4 648.082 1384.79 648 1385.12 648C1385.49 648 1385.97 648.023 1386.56 648.07C1387.87 648.141 1390 648.176 1392.96 648.176C1394.78 648.176 1396.28 648.152 1397.46 648.105C1397.5 648.363 1397.53 648.551 1397.53 648.668C1397.53 648.832 1397.49 649.055 1397.42 649.336C1396.67 649.734 1395.77 649.957 1394.71 650.004C1392.63 650.121 1391.3 650.285 1390.74 650.496C1390.18 650.707 1389.81 650.977 1389.65 651.305C1389.51 651.633 1389.38 652.711 1389.26 654.539L1389.3 656.156L1389.26 657.844C1389.26 661.359 1389.36 667.266 1389.55 675.562L1389.51 682.453L1389.55 686.883C1389.55 688.617 1389.63 689.648 1389.79 689.977C1389.96 690.281 1390.42 690.574 1391.2 690.855C1392.46 691.277 1394.53 691.711 1397.39 692.156C1397.55 692.273 1397.63 692.426 1397.63 692.613C1397.63 692.824 1397.62 693.059 1397.6 693.316H1395.98C1394.6 693.316 1393.1 693.27 1391.48 693.176C1389.86 693.105 1388.99 693.07 1388.88 693.07C1384.07 693.07 1380.89 693.117 1379.31 693.211C1378.35 693.281 1377.74 693.316 1377.49 693.316C1377.32 693.316 1377.15 693.27 1376.96 693.176V692.719C1376.96 692.508 1376.99 692.285 1377.06 692.051C1377.84 691.723 1378.89 691.5 1380.23 691.383C1381.71 690.984 1382.78 690.562 1383.46 690.117C1383.67 689.227 1383.78 687.41 1383.78 684.668L1383.67 677.566C1383.67 676.793 1383.71 675.352 1383.78 673.242C1383.87 671.133 1383.92 667.699 1383.92 662.941C1383.92 659.168 1383.83 656.309 1383.64 654.363C1383.24 655.184 1382.46 656.965 1381.28 659.707L1380.76 661.043L1380.69 661.254L1375.48 673.559L1373.62 678.305L1371.19 684.07C1370.14 686.719 1369.24 689.062 1368.49 691.102C1368.16 692.039 1367.89 692.777 1367.68 693.316L1366.87 693.281C1364.22 685.547 1361.06 677.613 1357.38 669.48C1353.72 661.348 1351.15 655.98 1349.68 653.379C1349.49 654.387 1349.28 657.316 1349.05 662.168C1348.74 668.074 1348.59 674.578 1348.59 681.68C1348.59 683.906 1348.75 686.414 1349.08 689.203C1349.17 690 1349.51 690.598 1350.1 690.996C1350.69 691.371 1352.2 691.582 1354.64 691.629C1355.57 691.629 1356.46 691.699 1357.31 691.84C1357.47 692.191 1357.55 692.449 1357.55 692.613C1357.55 692.73 1357.49 692.93 1357.38 693.211L1346.44 692.824C1345.65 692.824 1344.4 692.883 1342.72 693C1341.78 693.07 1340.43 693.117 1338.67 693.141L1338.64 692.191ZM1407.15 692.438C1407.39 692.227 1407.59 692.098 1407.75 692.051C1408.15 691.934 1408.83 691.84 1409.79 691.77C1412.06 691.629 1413.47 691.418 1414.01 691.137C1414.34 690.668 1414.5 690.012 1414.5 689.168L1414.46 686.707L1414.5 677.777L1414.43 673.559L1414.46 664.734L1414.29 654.715C1414.26 652.324 1414.11 650.977 1413.83 650.672C1413.41 650.227 1412.16 649.969 1410.07 649.898C1409.18 649.875 1408.39 649.805 1407.71 649.688C1407.41 649.523 1407.26 649.312 1407.26 649.055C1407.26 648.867 1407.32 648.645 1407.43 648.387C1407.64 648.27 1407.83 648.211 1408 648.211C1408.32 648.211 1408.72 648.223 1409.19 648.246C1410.57 648.363 1412 648.422 1413.48 648.422L1416.08 648.352L1422.27 648.492C1425.36 648.492 1427.78 648.457 1429.51 648.387C1431.25 648.316 1432.42 648.281 1433.03 648.281C1433.57 648.281 1434.9 648.328 1437.03 648.422L1442.03 648.387L1442.62 648.492L1445.54 648.387L1445.89 648.562C1446.01 648.75 1446.09 648.949 1446.14 649.16C1446.14 649.488 1446.08 649.992 1445.96 650.672C1445.87 651.352 1445.82 651.773 1445.82 651.938C1445.82 654.375 1445.91 656.438 1446.07 658.125C1446.05 658.266 1445.98 658.359 1445.86 658.406C1445.6 658.406 1445.37 658.371 1445.16 658.301C1444.9 657.855 1444.55 657.07 1444.1 655.945C1443.68 654.82 1443.03 653.52 1442.17 652.043C1441.58 651.059 1441.12 650.473 1440.8 650.285C1440.47 650.098 1439.79 650.004 1438.76 650.004C1438.55 650.004 1437.48 649.98 1435.56 649.934C1435.04 649.91 1434.54 649.898 1434.05 649.898L1424.03 650.109H1423.15C1421.86 650.109 1421.09 650.273 1420.83 650.602C1420.43 651.164 1420.23 652.816 1420.23 655.559C1420.23 655.84 1420.29 658.652 1420.41 663.996V668.883C1420.66 668.953 1420.94 668.988 1421.25 668.988H1421.85C1422.25 668.988 1422.83 669 1423.6 669.023C1424.82 669.07 1425.64 669.094 1426.07 669.094C1426.35 669.094 1426.59 669.082 1426.8 669.059C1429.34 668.965 1432.59 668.918 1436.58 668.918C1437.82 668.707 1438.55 668.461 1438.76 668.18C1439.11 667.758 1439.37 666.656 1439.53 664.875C1439.72 663.094 1440.12 662.086 1440.73 661.852C1441.03 661.852 1441.31 661.91 1441.57 662.027C1441.62 662.215 1441.64 662.391 1441.64 662.555C1441.64 662.719 1441.62 662.988 1441.57 663.363C1441.45 664.23 1441.39 666.949 1441.39 671.52C1441.39 672.738 1441.45 674.098 1441.57 675.598C1441.71 677.098 1441.78 677.906 1441.78 678.023C1441.78 678.234 1441.75 678.516 1441.68 678.867C1441.49 678.961 1441.34 679.008 1441.22 679.008H1440.97C1440.6 678.352 1440.23 677.332 1439.88 675.949C1439.27 673.582 1438.63 672.105 1437.95 671.52C1437.29 670.91 1436.21 670.605 1434.71 670.605C1434.39 670.605 1433.79 670.629 1432.92 670.676C1432.05 670.699 1430.76 670.711 1429.05 670.711H1426.77C1423.51 670.711 1421.38 670.781 1420.37 670.922L1420.34 672.082L1420.37 678.551L1420.34 682.629L1420.37 686.602C1420.39 688.992 1420.55 690.375 1420.83 690.75C1421.23 691.266 1422.09 691.523 1423.43 691.523L1425.57 691.488C1425.76 691.488 1426.49 691.512 1427.75 691.559C1429.04 691.582 1430.62 691.594 1432.5 691.594C1437.02 691.594 1440.03 691.406 1441.53 691.031C1443.03 690.633 1444.26 689.941 1445.23 688.957C1446.21 687.973 1447.44 685.852 1448.92 682.594C1449.36 681.633 1449.81 681.152 1450.25 681.152C1450.46 681.152 1450.7 681.246 1450.96 681.434C1450.28 683.754 1449.89 685.277 1449.8 686.004C1449.54 687.645 1449.39 689.32 1449.34 691.031C1449.34 691.805 1449.15 692.449 1448.78 692.965H1448L1438.12 693.07L1433.69 693.035L1423.15 693.176H1418.86C1418.32 693.176 1417.82 693.188 1417.35 693.211C1413.13 693.398 1410.02 693.492 1408.03 693.492C1407.68 693.492 1407.43 693.434 1407.29 693.316C1407.18 693.199 1407.12 693.023 1407.12 692.789L1407.15 692.438ZM1461.11 653.273L1462.55 647.965C1462.64 647.262 1462.77 646.816 1462.94 646.629C1463.1 646.418 1463.29 646.312 1463.5 646.312C1463.92 646.312 1464.4 646.816 1464.94 647.824C1465.34 648.551 1465.67 649.02 1465.93 649.23C1466.18 649.418 1466.56 649.547 1467.05 649.617L1467.4 649.582L1468.91 649.723L1477.21 649.828L1487.02 649.793H1489.9L1495.35 649.688C1495.59 649.688 1495.88 649.711 1496.23 649.758C1497.82 649.898 1498.81 649.969 1499.18 649.969C1499.54 649.969 1499.82 649.852 1500.03 649.617C1500.1 649.523 1500.48 648.727 1501.19 647.227C1501.49 646.547 1501.87 646.207 1502.31 646.207C1502.5 646.207 1502.73 646.254 1503.02 646.348C1503.13 646.816 1503.19 647.238 1503.19 647.613L1503.16 649.02L1503.19 652.008C1503.19 652.734 1503.13 655.078 1503.02 659.039C1503.02 659.297 1502.97 659.531 1502.88 659.742C1502.62 659.906 1502.39 659.988 1502.21 659.988C1502.02 659.988 1501.86 659.906 1501.71 659.742C1501.57 659.555 1501.4 659.004 1501.19 658.09C1500.72 655.98 1500.13 654.469 1499.43 653.555C1498.96 652.969 1498.28 652.547 1497.39 652.289C1496.52 652.031 1494.43 651.902 1491.1 651.902C1488.43 651.902 1486.45 651.949 1485.16 652.043C1485.11 652.98 1485.09 653.836 1485.09 654.609L1485.37 676.441C1485.37 677.309 1485.32 678.949 1485.23 681.363L1485.26 686.039L1485.23 688.641C1485.23 689.461 1485.37 690.047 1485.65 690.398C1485.93 690.75 1486.69 691.09 1487.93 691.418C1490.09 691.957 1491.53 692.285 1492.26 692.402C1492.7 692.449 1493.07 692.543 1493.35 692.684V693.738L1488.36 693.598C1485.61 693.574 1483.55 693.516 1482.17 693.422L1477.04 693.668L1473.27 693.879C1472.22 693.879 1471.57 693.855 1471.34 693.809L1470.85 693.598C1470.89 693.059 1471 692.719 1471.16 692.578C1471.33 692.414 1471.76 692.285 1472.46 692.191C1473.45 692.051 1474.61 691.805 1475.95 691.453C1477.28 691.078 1478.16 690.703 1478.58 690.328C1478.82 690.117 1478.98 689.766 1479.07 689.273C1479.29 688.242 1479.39 686.215 1479.39 683.191V677.215L1479.25 664.172L1479.11 661.359L1479.07 651.973C1477.6 651.809 1475.71 651.727 1473.41 651.727C1470.04 651.727 1467.99 651.938 1467.26 652.359C1466.11 653.016 1464.4 654.938 1462.13 658.125C1461.38 659.32 1460.72 659.918 1460.16 659.918L1459.84 659.848C1459.75 659.707 1459.7 659.578 1459.7 659.461C1459.7 659.18 1459.89 658.336 1460.27 656.93C1460.73 655.125 1461.02 653.906 1461.11 653.273ZM1512.85 691.875C1513.37 691.664 1513.9 691.535 1514.43 691.488C1518.02 691.254 1520.07 690.832 1520.59 690.223C1521.1 689.59 1521.36 686.578 1521.36 681.188L1521.33 677.496V673.629L1521.18 669.375L1521.25 666.879L1521.22 664.137V660.902L1521.15 659.461L1521.22 657.633C1521.24 657.211 1521.25 656.719 1521.25 656.156C1521.25 654.68 1521.18 653.121 1521.04 651.48C1520.95 651.152 1520.82 650.836 1520.66 650.531C1519.79 650.086 1518.38 649.793 1516.44 649.652C1514.52 649.488 1513.43 649.312 1513.17 649.125C1512.98 648.984 1512.88 648.621 1512.85 648.035H1515.81L1525.12 648.246C1527.51 648.246 1530.7 648.176 1534.68 648.035C1534.68 648.41 1534.66 648.762 1534.61 649.09C1534.15 649.207 1533.36 649.336 1532.26 649.477C1530.03 649.734 1528.67 649.98 1528.18 650.215C1527.88 650.332 1527.65 650.531 1527.51 650.812C1527.28 651.234 1527.14 652.02 1527.09 653.168L1526.91 657.703L1527.06 673.348V679.535C1527.01 681.48 1526.99 682.805 1526.99 683.508C1526.99 686.133 1527.04 687.809 1527.16 688.535C1527.3 689.262 1527.52 689.789 1527.83 690.117C1528.16 690.422 1528.68 690.668 1529.41 690.855C1530.49 691.113 1531.33 691.254 1531.94 691.277C1533.25 691.324 1534.09 691.512 1534.44 691.84C1534.51 692.145 1534.54 692.402 1534.54 692.613V692.895C1532.41 692.965 1530.84 693 1529.83 693C1529.25 693 1528.2 692.965 1526.7 692.895L1521.85 692.965L1513.59 692.93H1512.92L1512.85 691.875ZM1585.72 649.969C1586.01 651.773 1586.15 653.625 1586.15 655.523C1586.15 655.898 1586.13 656.402 1586.11 657.035C1585.78 657.105 1585.54 657.141 1585.37 657.141C1585.23 657.141 1585.03 657.117 1584.77 657.07C1583.79 654.328 1582.19 652.219 1579.96 650.742C1577.73 649.266 1574.98 648.527 1571.7 648.527C1569.96 648.527 1568.5 648.727 1567.3 649.125C1565.19 649.852 1563.34 650.859 1561.75 652.148C1560.15 653.414 1558.81 654.938 1557.7 656.719C1556.6 658.477 1555.72 660.621 1555.07 663.152C1554.44 665.66 1554.12 668.227 1554.12 670.852C1554.12 675.867 1554.88 680.016 1556.4 683.297C1557.93 686.555 1560.01 688.887 1562.66 690.293C1565.31 691.676 1567.98 692.367 1570.68 692.367L1572.33 692.332C1574.2 692.098 1575.48 691.875 1576.16 691.664C1577.87 691.172 1579.28 690.598 1580.38 689.941C1581.51 689.262 1582.6 688.312 1583.65 687.094C1584.73 685.875 1585.64 684.457 1586.39 682.84L1586.81 682.699C1586.93 682.699 1587.11 682.77 1587.34 682.91C1587.32 683.473 1587.29 683.836 1587.27 684C1586.29 687.961 1585.57 690.668 1585.13 692.121C1584.75 692.215 1584.28 692.355 1583.72 692.543C1580.98 693.48 1577.31 693.949 1572.72 693.949C1569.01 693.949 1566.24 693.691 1564.38 693.176C1562.56 692.684 1560.55 691.91 1558.37 690.855C1556.22 689.777 1554.32 688.359 1552.68 686.602C1551.04 684.844 1549.71 682.629 1548.7 679.957C1547.7 677.262 1547.19 674.332 1547.19 671.168C1547.19 668.168 1547.59 665.555 1548.39 663.328C1549.19 661.078 1550.42 658.805 1552.08 656.508C1553.74 654.211 1555.7 652.301 1557.95 650.777C1560.22 649.254 1562.74 648.176 1565.51 647.543C1567.45 647.121 1570.21 646.91 1573.77 646.91C1576.37 646.91 1578.82 647.262 1581.12 647.965C1583.42 648.645 1584.95 649.312 1585.72 649.969ZM1624.99 649.617C1625.17 651.164 1625.27 652.055 1625.27 652.289L1625.13 655.418C1625.08 656.754 1625.02 657.609 1624.95 657.984C1624.74 658.078 1624.56 658.125 1624.42 658.125L1624.11 658.055C1623.36 654.773 1622.08 652.383 1620.28 650.883C1618.49 649.383 1616.31 648.633 1613.74 648.633C1611.06 648.633 1608.87 649.383 1607.16 650.883C1605.45 652.383 1604.6 654.129 1604.6 656.121C1604.6 657.645 1605.19 659.039 1606.39 660.305C1607.58 661.57 1610.64 663.469 1615.56 666C1619.31 667.945 1622 669.539 1623.62 670.781C1625.23 672 1626.45 673.418 1627.27 675.035C1628.09 676.652 1628.5 678.457 1628.5 680.449C1628.5 682.957 1627.85 685.312 1626.53 687.516C1625.24 689.719 1623.5 691.383 1621.3 692.508C1619.09 693.609 1616.17 694.16 1612.54 694.16C1609.38 694.16 1606.34 693.656 1603.44 692.648C1601.73 692.039 1600.68 691.547 1600.31 691.172C1599.93 690.797 1599.74 690.398 1599.74 689.977C1599.74 689.719 1599.77 689.391 1599.81 688.992C1600.14 686.227 1600.32 683.953 1600.34 682.172C1600.39 681.07 1600.47 680.426 1600.59 680.238C1600.68 680.074 1600.86 679.992 1601.12 679.992C1601.33 679.992 1601.49 680.074 1601.61 680.238C1601.75 680.379 1601.84 680.66 1601.89 681.082C1602.15 683.965 1603.48 686.543 1605.9 688.816C1608.29 691.09 1610.99 692.227 1614.02 692.227C1615.87 692.227 1617.57 691.84 1619.12 691.066C1620.69 690.293 1621.9 689.18 1622.77 687.727C1623.66 686.25 1624.11 684.82 1624.11 683.438C1624.11 681.539 1623.44 679.805 1622.1 678.234C1620.77 676.664 1618.08 674.836 1614.05 672.75C1610.02 670.641 1607.4 669.105 1606.18 668.145C1604.21 666.574 1602.73 664.91 1601.75 663.152C1601.02 661.793 1600.66 660.211 1600.66 658.406C1600.66 655.148 1601.95 652.395 1604.53 650.145C1607.1 647.871 1610.56 646.734 1614.9 646.734C1617.29 646.734 1619.35 647.004 1621.08 647.543C1622.35 647.965 1623.65 648.656 1624.99 649.617Z" fill="black"/>
</svg>
